<?xml version="1.0" encoding="UTF-8" standalone="no"?>
<!-- Generator: Adobe Illustrator 13.0.0, SVG Export Plug-In . SVG Version: 6.00 Build 14948)  -->

<svg
   xmlns:dc="http://purl.org/dc/elements/1.1/"
   xmlns:cc="http://creativecommons.org/ns#"
   xmlns:rdf="http://www.w3.org/1999/02/22-rdf-syntax-ns#"
   xmlns:svg="http://www.w3.org/2000/svg"
   xmlns="http://www.w3.org/2000/svg"
   xmlns:xlink="http://www.w3.org/1999/xlink"
   xmlns:sodipodi="http://sodipodi.sourceforge.net/DTD/sodipodi-0.dtd"
   xmlns:inkscape="http://www.inkscape.org/namespaces/inkscape"
   version="1.1"
   id="Layer_1"
   x="0px"
   y="0px"
   width="113.172px"
   height="139.81px"
   viewBox="0 0 113.172 139.81"
   enable-background="new 0 0 113.172 139.81"
   xml:space="preserve"
   inkscape:version="0.48.2 r9819"
   sodipodi:docname="panda.svg"><metadata
   id="metadata183"><rdf:RDF><cc:Work
       rdf:about=""><dc:format>image/svg+xml</dc:format><dc:type
         rdf:resource="http://purl.org/dc/dcmitype/StillImage" /></cc:Work></rdf:RDF></metadata><defs
   id="defs181"><linearGradient
   id="linearGradient3321"><stop
     style="stop-color:#408000;stop-opacity:1;"
     offset="0"
     id="stop3323" /><stop
     style="stop-color:#59b200;stop-opacity:1;"
     offset="1"
     id="stop3325" /></linearGradient><linearGradient
   id="linearGradient3301"><stop
     style="stop-color:#404040;stop-opacity:1;"
     offset="0"
     id="stop3303" /><stop
     style="stop-color:#1a1a1a;stop-opacity:1;"
     offset="1"
     id="stop3305" /></linearGradient><linearGradient
   id="linearGradient3293"><stop
     style="stop-color:#cccccc;stop-opacity:1;"
     offset="0"
     id="stop3295" /><stop
     style="stop-color:#f0f0f0;stop-opacity:1;"
     offset="1"
     id="stop3297" /></linearGradient><linearGradient
   id="linearGradient3279"><stop
     style="stop-color:#1a1a1a;stop-opacity:1;"
     offset="0"
     id="stop3281" /><stop
     style="stop-color:#4d4d4d;stop-opacity:1;"
     offset="1"
     id="stop3283" /></linearGradient>
	<linearGradient
   inkscape:collect="always"
   xlink:href="#linearGradient3279"
   id="linearGradient3285"
   x1="7.0683556"
   y1="107.79986"
   x2="51.944725"
   y2="135.08905"
   gradientUnits="userSpaceOnUse" /><linearGradient
   inkscape:collect="always"
   xlink:href="#linearGradient3279"
   id="linearGradient3287"
   x1="76.2593"
   y1="105.65015"
   x2="110.8807"
   y2="122.86095"
   gradientUnits="userSpaceOnUse" /><linearGradient
   inkscape:collect="always"
   xlink:href="#linearGradient3279"
   id="linearGradient3289"
   x1="8.4146252"
   y1="45.832333"
   x2="75.10862"
   y2="73.431625"
   gradientUnits="userSpaceOnUse" /><linearGradient
   inkscape:collect="always"
   xlink:href="#linearGradient3279"
   id="linearGradient3291"
   x1="54.03348"
   y1="63.806936"
   x2="83.981625"
   y2="63.806936"
   gradientUnits="userSpaceOnUse" /><radialGradient
   inkscape:collect="always"
   xlink:href="#linearGradient3293"
   id="radialGradient3299"
   cx="45.702467"
   cy="69.721909"
   fx="45.702467"
   fy="69.721909"
   r="45.701533"
   gradientTransform="matrix(1,0,0,1.4707528,0,-32.821786)"
   gradientUnits="userSpaceOnUse" /><radialGradient
   inkscape:collect="always"
   xlink:href="#linearGradient3279"
   id="radialGradient3307"
   cx="52.178314"
   cy="30.744122"
   fx="52.178314"
   fy="30.744122"
   r="6.1173634"
   gradientTransform="matrix(1,0,0,1.0022403,0,-0.07156834)"
   gradientUnits="userSpaceOnUse" /><radialGradient
   inkscape:collect="always"
   xlink:href="#linearGradient3301"
   id="radialGradient3309"
   cx="52.168999"
   cy="30.6"
   fx="52.168999"
   fy="30.6"
   r="1.432"
   gradientUnits="userSpaceOnUse" /><radialGradient
   inkscape:collect="always"
   xlink:href="#linearGradient3279"
   id="radialGradient3311"
   cx="67.389961"
   cy="29.705824"
   fx="67.389961"
   fy="29.705824"
   r="2.4087594"
   gradientTransform="matrix(1.5858481,-3.8484698e-7,5.0074162e-7,2.0634179,-39.480291,-32.205044)"
   gradientUnits="userSpaceOnUse" /><linearGradient
   inkscape:collect="always"
   xlink:href="#linearGradient3279"
   id="linearGradient3313"
   x1="41.578037"
   y1="11.510409"
   x2="34.545368"
   y2="1.5352736"
   gradientUnits="userSpaceOnUse" /><linearGradient
   inkscape:collect="always"
   xlink:href="#linearGradient3279"
   id="linearGradient3315"
   x1="67.894135"
   y1="11.422039"
   x2="73.681267"
   y2="5.830595"
   gradientUnits="userSpaceOnUse" /><radialGradient
   inkscape:collect="always"
   xlink:href="#linearGradient3301"
   id="radialGradient3317"
   cx="65.929581"
   cy="42.650997"
   fx="65.929581"
   fy="42.650997"
   r="5.1054046"
   gradientTransform="matrix(1,0,0,0.43412574,0,25.06801)"
   gradientUnits="userSpaceOnUse" /><linearGradient
   inkscape:collect="always"
   xlink:href="#linearGradient3279"
   id="linearGradient3319"
   x1="66.01519"
   y1="48.240257"
   x2="66.346664"
   y2="45.153778"
   gradientUnits="userSpaceOnUse" /><linearGradient
   inkscape:collect="always"
   xlink:href="#linearGradient3321"
   id="linearGradient3327"
   x1="82.884781"
   y1="41.330139"
   x2="82.42643"
   y2="24.967371"
   gradientUnits="userSpaceOnUse" /><linearGradient
   inkscape:collect="always"
   xlink:href="#linearGradient3321"
   id="linearGradient3329"
   x1="87.26622"
   y1="34.611439"
   x2="94.098633"
   y2="34.102993"
   gradientUnits="userSpaceOnUse" /><linearGradient
   inkscape:collect="always"
   xlink:href="#linearGradient3321"
   id="linearGradient3331"
   x1="88.738007"
   y1="33.40493"
   x2="89.039253"
   y2="27.742674"
   gradientUnits="userSpaceOnUse" /><linearGradient
   inkscape:collect="always"
   xlink:href="#linearGradient3321"
   id="linearGradient3333"
   x1="83.667442"
   y1="42.685989"
   x2="91.848938"
   y2="39.750858"
   gradientUnits="userSpaceOnUse" /><linearGradient
   inkscape:collect="always"
   xlink:href="#linearGradient3321"
   id="linearGradient3335"
   x1="77.503014"
   y1="53.434914"
   x2="70.726151"
   y2="42.965515"
   gradientUnits="userSpaceOnUse" /><linearGradient
   inkscape:collect="always"
   xlink:href="#linearGradient3321"
   id="linearGradient3337"
   x1="77.475227"
   y1="53.542934"
   x2="89.411552"
   y2="47.534008"
   gradientUnits="userSpaceOnUse" /><linearGradient
   inkscape:collect="always"
   xlink:href="#linearGradient3321"
   id="linearGradient3339"
   x1="73.822525"
   y1="62.994545"
   x2="60.52142"
   y2="52.871815"
   gradientUnits="userSpaceOnUse" /><linearGradient
   inkscape:collect="always"
   xlink:href="#linearGradient3321"
   id="linearGradient3341"
   x1="73.812767"
   y1="63.832348"
   x2="93.410583"
   y2="60.388771"
   gradientUnits="userSpaceOnUse" /><linearGradient
   inkscape:collect="always"
   xlink:href="#linearGradient3321"
   id="linearGradient3343"
   x1="78.328339"
   y1="67.456825"
   x2="88.775665"
   y2="54.491409"
   gradientUnits="userSpaceOnUse" /><linearGradient
   inkscape:collect="always"
   xlink:href="#linearGradient3321"
   id="linearGradient3345"
   x1="88.021576"
   y1="65.921387"
   x2="96.722656"
   y2="56.676884"
   gradientUnits="userSpaceOnUse" /><linearGradient
   inkscape:collect="always"
   xlink:href="#linearGradient3321"
   id="linearGradient3347"
   x1="96.225052"
   y1="68.245323"
   x2="108.7424"
   y2="60.687943"
   gradientUnits="userSpaceOnUse" /><linearGradient
   inkscape:collect="always"
   xlink:href="#linearGradient3321"
   id="linearGradient3349"
   x1="97.539337"
   y1="68.163963"
   x2="100.16872"
   y2="75.605789"
   gradientUnits="userSpaceOnUse" /><linearGradient
   inkscape:collect="always"
   xlink:href="#linearGradient3321"
   id="linearGradient3351"
   x1="105.43158"
   y1="71.443985"
   x2="103.64639"
   y2="78.238701"
   gradientUnits="userSpaceOnUse" /><linearGradient
   inkscape:collect="always"
   xlink:href="#linearGradient3321"
   id="linearGradient3353"
   x1="105.984"
   y1="73.079709"
   x2="111.7798"
   y2="73.079709"
   gradientUnits="userSpaceOnUse" /><linearGradient
   inkscape:collect="always"
   xlink:href="#linearGradient3321"
   id="linearGradient3355"
   x1="88.000092"
   y1="66.751747"
   x2="93.70089"
   y2="77.059364"
   gradientUnits="userSpaceOnUse" /><linearGradient
   inkscape:collect="always"
   xlink:href="#linearGradient3321"
   id="linearGradient3357"
   x1="77.623779"
   y1="68.247444"
   x2="87.577301"
   y2="82.252869"
   gradientUnits="userSpaceOnUse" /><linearGradient
   inkscape:collect="always"
   xlink:href="#linearGradient3321"
   id="linearGradient3359"
   x1="59.585776"
   y1="69.452882"
   x2="105.984"
   y2="69.452882"
   gradientUnits="userSpaceOnUse" /><linearGradient
   inkscape:collect="always"
   xlink:href="#linearGradient3321"
   id="linearGradient3361"
   x1="69.621376"
   y1="83.050262"
   x2="88.645996"
   y2="33.45351"
   gradientUnits="userSpaceOnUse" /></defs><sodipodi:namedview
   pagecolor="#ffffff"
   bordercolor="#666666"
   borderopacity="1"
   objecttolerance="10"
   gridtolerance="10"
   guidetolerance="10"
   inkscape:pageopacity="0"
   inkscape:pageshadow="2"
   inkscape:window-width="1920"
   inkscape:window-height="1018"
   id="namedview179"
   showgrid="false"
   inkscape:zoom="5.7148707"
   inkscape:cx="56.586465"
   inkscape:cy="76.904389"
   inkscape:window-x="-8"
   inkscape:window-y="-8"
   inkscape:window-maximized="1"
   inkscape:current-layer="Layer_1" />
<g
   id="g3363"><path
     d="m 71.747,17.736 c 1.085,0.058 2.497,0.125 2.011,-0.208 -0.486,-0.333 -1.164,-0.817 -0.525,-0.713 0.639,0.104 1.811,0.282 1.412,0.067 -0.398,-0.215 -0.956,-0.754 -0.542,-0.626 0.415,0.127 1.62,0.131 1.221,-0.084 -0.398,-0.214 -1.131,-0.991 -0.613,-0.832 0.518,0.159 2.115,-0.176 1.525,-0.542 -0.59,-0.366 -0.996,-1.133 -0.533,-1.266 0.463,-0.133 1.509,-0.455 1.11,-0.669 -0.399,-0.215 -0.774,0.037 -0.662,-0.571 0.112,-0.608 0.785,-1.872 0.37,-1.999 C 76.106,10.166 75.349,10.116 75.62,9.832 75.892,9.548 76.914,8.76 76.101,8.418 75.288,8.076 74.507,7.56 74.325,6.769 74.142,5.978 74.486,5.9 73.935,5.914 73.384,5.929 73.177,5.865 73.025,6.094 72.873,6.323 72.635,5.239 72.7,4.891 72.765,4.543 72.58,4.946 72.117,5.079 71.654,5.212 71.271,4.911 71.264,4.357 71.257,3.804 70.939,3.154 70.77,3.47 70.602,3.786 70.625,4.252 70.195,4.212 69.764,4.171 69.734,3.151 69.319,3.024 68.904,2.896 68.704,3.386 67.826,3.391 c -0.878,0.006 -1.5,-0.186 -2.649,0.104 -1.149,0.29 -2.078,1.112 -2.99,2.486 -0.912,1.373 -0.284,2.847 0.187,3.267 0.47,0.42 2.83,2.983 2.733,3.504 -0.097,0.521 1.403,0.708 1.323,1.142 -0.081,0.435 0.39,0.855 0.772,1.156 0.382,0.301 1.099,1.165 1.689,1.53 0.59,0.365 2.856,1.156 2.856,1.156 z"
     id="path5"
     inkscape:connector-curvature="0"
     style="fill:url(#linearGradient3315)" /><path
     d="m 77.497,98.159 c 1.176,-0.081 3.251,0.328 4.462,-0.386 1.211,-0.714 2.381,-0.661 3.681,-1.223 1.3,-0.562 5.237,4.94 5.843,4.583 0.605,-0.357 3.139,3.111 2.955,3.901 -0.194,0.829 -0.052,2.91 1.327,3.382 1.379,0.472 3.186,1.221 3.821,1.177 0.635,-0.043 1.997,-0.556 2.438,-0.65 0.44,-0.094 0.398,0.485 -0.337,0.918 -0.736,0.434 0.304,0.072 1.595,0.302 1.291,0.23 2.288,0.799 2.699,1.217 0.412,0.418 -0.418,0.412 -0.909,0.701 -0.49,0.289 2.533,0.655 3.406,1.296 0.874,0.641 2.62,1.924 2.368,2.898 -0.252,0.974 0.593,2.128 0.759,2.69 0.167,0.563 -0.151,0.584 -0.786,0.628 -0.635,0.043 0.065,0.952 0.571,1.81 0.505,0.858 0.304,1.638 0.304,1.638 0,0 -0.455,-1.053 -1.162,-1.132 -0.707,-0.079 -0.685,0.239 -0.375,1.046 0.311,0.808 -0.101,0.39 -0.685,0.239 -0.584,-0.151 -1.239,2.381 -2.393,3.226 -1.154,0.845 -3.004,2.31 -4.101,2.13 -1.097,-0.18 -2.406,-0.278 -2.751,0.256 -0.346,0.534 -0.786,0.628 -1.082,0.967 -0.295,0.339 0.129,-0.902 -0.405,-1.248 -0.534,-0.346 -0.44,0.094 -0.908,0.7 -0.469,0.606 -1.945,0.045 -1.945,0.045 0,0 -2.366,1.476 -2.485,0.678 0.149,1.005 -2.165,-0.479 -2.793,-0.562 -1.938,-0.259 -3.836,-4.019 -5.773,-3.577 -2.348,0.536 -19.438,-4.029 -20.633,-5.364 -1.194,-1.335 -6.542,-17.679 -3.569,-20.247 2.973,-2.568 16.863,-2.039 16.863,-2.039 z"
     id="path7"
     inkscape:connector-curvature="0"
     style="fill:url(#linearGradient3287)" /><path
     d="m 71.299,15.761 c 3.123,7.027 5.466,8.425 5.075,17.014 -0.39,8.588 -4.215,22.266 -3.904,25.766 0.781,8.784 -2.342,14.249 4.88,24.594 2.375,3.403 7.808,8.979 8.198,11.712 0.39,2.732 0.39,1.562 1.952,3.123 0,0 0,0.585 0.585,1.952 0.586,1.366 0.586,2.342 1.757,2.732 1.171,0.391 1.562,2.538 1.562,2.538 0,0 -3.514,-2.147 -4.294,-3.708 -0.78,-1.561 -0.391,2.928 0.585,4.099 0.976,1.171 0.585,2.147 0.585,2.928 0,0.781 0.391,1.562 0.585,2.147 0.195,0.586 -2.342,-0.781 -2.537,-1.952 -0.195,-1.171 -1.562,-1.757 -2.342,-2.342 -0.781,-0.586 -0.586,1.756 -0.195,3.123 0.39,1.366 1.171,2.928 1.171,2.928 0,0 -1.366,-1.562 -2.147,-2.733 -0.781,-1.171 -2.538,-2.147 -3.514,-2.732 -0.976,-0.585 -0.39,2.147 0.391,3.513 0.781,1.367 0.195,-1.756 -0.781,-2.147 -0.976,-0.39 0.039,3.678 -0.585,2.928 -0.976,-1.171 -0.195,2.537 -0.195,2.537 0,0 -1.952,-0.976 -3.318,-1.171 -1.394,-0.199 0.011,0.596 1.757,2.342 0.976,0.976 2.928,0.976 0.781,0.781 -3.499,-0.318 -1.952,-0.195 -0.781,1.757 1.171,1.952 -0.086,1.322 -1.562,3.904 -0.781,1.366 -1.757,2.147 -2.147,2.733 -1.531,2.297 2.733,5.27 1.562,4.489 -1.171,-0.781 -3.319,-0.781 -4.685,-1.952 -1.186,-1.016 0.976,5.271 -0.585,3.709 0,0 -1.952,3.123 -1.952,2.342 0,-0.781 -0.195,-1.171 -0.976,-1.757 -0.781,-0.586 -0.586,0.781 -0.195,2.147 0.39,1.367 0.39,4.49 0.39,3.709 0,-0.781 -1.171,-1.366 -1.952,-1.952 -0.781,-0.585 -2.342,-2.732 -1.952,-1.171 0.391,1.562 0.195,2.732 0.195,2.732 0,0 -0.781,-0.976 -1.757,-1.366 -0.976,-0.39 -2.538,-2.342 -2.538,-2.342 0,0 0,1.171 0.195,2.538 0.195,1.366 0,2.147 -0.39,1.366 -0.391,-0.781 -1.171,-1.171 -1.952,-1.562 -0.781,-0.391 -1.366,-0.781 -1.366,-0.781 -0.781,-1.562 -8.198,1.952 -10.15,2.342 -1.952,0.391 -4.685,-0.391 -12.883,-1.562 -8.198,-1.171 -19.129,-13.664 -20.3,-15.616 -1.171,-1.952 -3.904,-5.075 -3.904,-6.636 0,-1.561 -1.952,-0.781 -3.123,-1.952 -1.171,-1.171 2.733,-6.637 1.562,-6.637 -1.171,0 -2.342,0.781 -2.342,0.781 0,0 2.342,-3.904 1.171,-4.294 -1.171,-0.391 -1.171,0 -1.171,-1.171 0,-1.171 0.391,-1.562 0.391,-1.562 L 2.983,96.798 c 0,0 1.171,-1.171 -1.171,-3.123 0,0 0,0 0.781,-1.562 0.781,-1.562 0,-1.952 -1.562,-2.732 -1.562,-0.78 -1.171,-0.781 0,-3.514 C 2.202,83.134 2.007,75.326 0.836,71.423 -0.335,67.519 0.836,56.393 3.178,53.66 5.52,50.927 22.99,29.261 23.673,22.819 c 0.741,-6.984 1.978,-9.418 4.88,-11.353 0,0 1.757,-2.928 6.441,-5.66 0,0 8.003,-2.44 8.881,-2.342 0.878,0.097 1.269,-1.171 1.659,-0.586 0.391,0.586 0.098,0.976 0.098,0.976 0,0 0.878,-0.195 0.878,-0.585 0,-0.391 0.195,0.292 0.293,0.585 0.098,0.293 0.878,-0.585 0.878,-0.976 0,-0.39 0.292,0.195 0.488,0.683 0.195,0.488 0.878,-0.292 0.683,-0.781 -0.195,-0.488 0.488,0.878 0.586,1.171 0.097,0.293 0.39,-0.976 0.39,-1.366 0,-0.391 0.391,0.781 0.781,1.171 0.391,0.391 0.781,0 0.878,-0.585 0.097,-0.585 0.39,0.488 0.878,0.878 0.488,0.39 0.781,-0.781 0.878,-1.269 0.098,-0.488 0.195,1.269 0.39,1.269 0.195,0 0.488,-1.464 0.683,-1.074 0.195,0.391 0.781,2.342 0.781,1.269 0,-1.074 0.488,-1.269 0.586,-0.976 0.098,0.292 0.976,1.464 0.976,1.171 0,-0.292 0.683,-0.585 1.073,-0.585 0.391,0 0.683,-1.366 0.683,-0.293 0,1.074 0.293,1.171 0.391,1.562 0.098,0.39 0.683,-0.098 1.074,-0.391 0.39,-0.293 0.097,0.878 0.683,0.878 0.585,0 1.464,0 1.952,0.293 0.488,0.292 1.269,0.195 1.562,0.097 0.293,-0.097 0,0.391 -0.097,0.878 -0.098,0.488 -0.195,0.878 0.488,0.878 0.683,0 1.464,0.683 1.464,0.683 0,0 -0.39,0.195 -0.39,0.684 0,0.488 0.585,0.488 0.878,0.488 0.293,0 0,0.39 0.195,0.878 0.195,0.488 0.878,0.878 1.366,0.878 0.488,0 -0.292,0.878 0.391,1.269 0.683,0.391 1.171,0.293 1.171,0.781 0,0.488 0.292,1.757 0.585,1.952 0.293,0.197 1.171,0.392 1.171,0.392 z"
     id="path9"
     inkscape:connector-curvature="0"
     style="fill:url(#radialGradient3299)" /><path
     d="m 63.101,59.906 c 2.343,-1.171 6.084,-3.61 8.817,-7.124 2.732,-3.513 2.749,-5.685 3.919,-4.514 0,0 0.928,1.098 1.903,1.488 0.976,0.39 2.343,0.585 1.562,0.976 -0.781,0.391 -1.756,0.391 -1.366,0.781 0.391,0.39 2.342,0.585 1.757,0.976 -0.585,0.391 -1.366,0.976 -0.585,1.367 0.781,0.39 1.952,0.585 1.562,1.366 -0.391,0.781 -0.585,1.171 0.39,1.366 0.976,0.195 2.342,2.538 2.538,3.514 0.196,0.976 -0.585,2.733 -0.39,3.904 0.195,1.171 1.366,1.952 0.39,3.514 -0.976,1.562 -1.366,3.318 -0.976,4.294 0.391,0.976 -0.39,3.123 -1.952,4.49 -1.562,1.366 -0.391,3.708 -6.637,3.318 -6.246,-0.391 -17.958,-9.76 -18.153,-11.712 -0.195,-1.952 -2.928,-5.856 -1.367,-6.832 1.561,-0.976 8.588,-1.172 8.588,-1.172 z"
     id="path11"
     inkscape:connector-curvature="0"
     style="fill:url(#linearGradient3291)" /><path
     d="m 5.015,111.943 c 0.72,-1.451 1.181,-4.647 3.563,-5.975 2.383,-1.327 7.539,-3.699 8.776,-3.106 1.237,0.593 9.125,0.481 9.34,1.333 0.215,0.852 8.994,6.499 8.314,7.396 -0.679,0.896 5.779,6.859 6.59,7.198 0.811,0.338 5.969,2.958 6.863,2.914 0.895,-0.045 5.08,5.154 4.998,6.262 -0.082,1.108 0.221,3.024 0.565,4.387 0.344,1.363 -5.781,5.085 -7.612,5.729 -1.831,0.644 -5.789,2.188 -7.75,1.597 -1.961,-0.591 -2.431,-1.016 -2.431,-1.016 0,0 -0.595,0.513 -0.85,0.939 -0.255,0.426 -0.513,-0.595 -0.685,-1.276 -0.172,-0.682 -0.807,1.11 -1.274,1.409 -0.468,0.299 -0.045,-0.895 -0.601,-1.66 -0.556,-0.765 -1.404,0.898 -1.872,1.198 -0.468,0.3 -0.256,-0.297 -0.77,-0.893 -0.513,-0.595 -1.748,-0.464 -2.13,0.176 -0.382,0.64 -0.131,-1.235 -0.984,-1.745 -0.854,-0.509 -7.584,0.105 -9.205,-0.572 -1.621,-0.678 -2.815,-1.101 -3.287,-2.25 -0.472,-1.149 -0.39,-2.257 -0.985,-1.744 -0.595,0.513 -0.591,1.961 -0.977,1.153 -0.386,-0.809 -0.219,-2.3 -0.73,-2.171 -0.511,0.129 -0.936,0.599 -1.194,-0.423 -0.258,-1.022 -0.56,-2.214 -0.56,-2.214 0,0 -0.683,-0.552 -1.194,-0.423 -0.511,0.129 -0.258,-1.022 -0.43,-1.703 -0.172,-0.681 -0.773,-2.341 -1.752,-1.913 -0.979,0.428 -0.215,-0.852 -0.133,-1.96 0.083,-1.108 -0.389,-2.257 -0.945,-3.022 -0.556,-0.766 -1.159,-3.15 -1.163,-4.599 -0.002,-1.448 0.505,-3.026 0.505,-3.026 z"
     id="path13"
     inkscape:connector-curvature="0"
     style="fill:url(#linearGradient3285)" /><path
     d="m 74.693,67.708 c 2.681,-0.563 11.1,-3.053 14.614,-1.445 3.514,1.608 9.729,1.402 12.191,2.421 2.463,1.019 4.486,4.315 4.486,4.315 0,0 -4.158,-4.694 -6.659,-4.212 -2.501,0.482 -9.522,-1.05 -10.579,-1.425 -1.057,-0.375 -11.213,0.561 -12.647,0.99 -1.433,0.428 -12.729,4.205 -14.516,4.58 -1.788,0.375 -2.142,0.321 -1.951,-0.188 0.191,-0.511 15.061,-5.036 15.061,-5.036 z"
     id="path15"
     inkscape:connector-curvature="0"
     style="fill:url(#linearGradient3359)" /><path
     style="fill:url(#linearGradient3355)"
     inkscape:connector-curvature="0"
     id="path19"
     d="m 88.132,66.679 c -1.084,0.696 0.064,4.421 0.396,5.332 0.332,0.911 2.653,0.509 2.44,1.876 -0.213,1.366 0.664,1.822 1.182,2.438 0.517,0.617 1.574,0.992 1.574,0.992 0,0 -0.407,-4.903 -1.644,-5.198 -1.236,-0.295 -0.647,-2.465 -1.519,-3.135 -0.872,-0.67 -2.429,-2.305 -2.429,-2.305 z" /><path
     style="fill:#008000"
     inkscape:connector-curvature="0"
     id="path21"
     d="m 87.914,68.26 c 0.218,-1.581 0.635,-0.496 0.958,0.737 0.336,1.282 0.757,1.675 1.459,1.996 0.703,0.322 1.716,2.412 1.868,3.403 0.152,0.991 0.67,1.607 0.67,1.607 0,0 -2.31,-0.027 -2.271,-1.527 0.039,-1.5 -1.378,-1.715 -2.07,-2.465 -0.692,-0.75 -0.614,-3.751 -0.614,-3.751 z" /><path
     style="fill:url(#linearGradient3357)"
     inkscape:connector-curvature="0"
     id="path25"
     d="m 77.433,70.549 c -0.287,-0.826 -0.72,-2.738 0.696,-2.644 1.417,0.094 5.034,4.531 5.69,5.758 0.657,1.227 -0.358,2.289 0.637,3.162 0.995,0.874 1.569,2.525 1.913,3.517 0.344,0.992 0.912,1.298 1.34,1.864 0.427,0.566 -3.829,-1.062 -4.09,-2.478 -0.261,-1.416 -1.32,-3.8 -2.539,-3.988 -1.219,-0.189 -2.105,-2.077 -2.59,-2.808 -0.483,-0.731 -1.057,-2.383 -1.057,-2.383 z" /><path
     style="fill:#008000"
     inkscape:connector-curvature="0"
     id="path27"
     d="m 77.112,68.295 c -0.096,0.72 2.596,4.153 3.492,5.074 0.896,0.92 4.044,5.003 4.232,5.876 0.188,0.873 2.236,2.785 2.236,2.785 0,0 -1.553,-2.148 -1.812,-2.891 -0.258,-0.744 -3.479,-5.369 -4.318,-6.124 -0.839,-0.755 -3.83,-4.72 -3.83,-4.72 z" /><path
     style="fill:url(#linearGradient3343)"
     inkscape:connector-curvature="0"
     id="path31"
     d="m 89.053,54.293 c -0.478,0.926 -1.909,0.907 -3.34,0.889 -1.431,-0.019 -3.261,2.567 -3.836,4.796 -0.575,2.229 -2.841,5.182 -3.347,6.48 -0.506,1.298 -1.158,1.252 0.606,1.201 1.764,-0.052 5.543,-4.103 5.696,-6.151 0.152,-2.048 0.305,-4.097 1.792,-4.823 1.487,-0.726 2.429,-2.392 2.429,-2.392 z" /><path
     style="fill:#008000"
     inkscape:connector-curvature="0"
     id="path33"
     d="m 88.405,54.751 c -1.5,0.912 -2.72,0.803 -3.504,1.725 -0.785,0.922 -1.649,5.663 -2.754,6.767 -1.105,1.104 -3.89,4.143 -3.89,4.143 0,0 4.141,-3.394 4.632,-4.506 0.492,-1.112 1.485,-4.827 2.181,-5.936 0.697,-1.109 3.335,-2.193 3.335,-2.193 z" /><path
     style="fill:url(#linearGradient3347)"
     inkscape:connector-curvature="0"
     id="path37"
     d="m 98.142,67.889 c 1.695,-0.318 6.693,-1.707 7.881,-3.684 1.188,-1.977 1.906,-2.786 2.586,-3.341 0.681,-0.555 -1.93,0.902 -4.033,0.938 -2.103,0.035 -7.089,2.365 -7.72,3.608 -0.631,1.243 -0.249,2.722 -0.731,2.948 -0.482,0.226 2.017,-0.469 2.017,-0.469 z" /><path
     style="fill:#008000"
     inkscape:connector-curvature="0"
     id="path39"
     d="m 96.28,67.812 c 0.433,-0.143 1.251,-0.999 2.782,-1.863 1.531,-0.864 2.792,-1.157 3.726,-1.652 1.868,-0.992 3.329,-2.267 4.213,-2.68 0.885,-0.413 -2.932,1.608 -3.458,1.617 -0.525,0.009 -1.051,0.018 -1.732,0.572 -0.681,0.555 -2.227,1.396 -2.79,1.66 -0.563,0.263 -1.973,0.685 -2.19,1.142 -0.217,0.455 -0.551,1.204 -0.551,1.204 z" /><path
     style="fill:url(#linearGradient3351)"
     inkscape:connector-curvature="0"
     id="path43"
     d="m 105.612,72.048 c 0.372,0.95 0.434,1.722 -0.229,3.304 -0.663,1.582 -1.336,1.809 -1.751,2.797 -0.414,0.989 0.343,-3.115 0.923,-4.5 0.58,-1.385 0.912,-2.175 0.912,-2.175 l 0.145,0.574 z" /><path
     style="fill:#008000"
     inkscape:connector-curvature="0"
     id="path45"
     d="m 105.467,71.474 c 0.155,0.089 0.108,1.351 -0.28,2.047 -0.389,0.697 -0.498,1.187 -0.632,1.968 -0.134,0.781 0.114,-1.652 0.363,-2.245 0.249,-0.593 0.549,-1.77 0.549,-1.77 z" /><path
     style="fill:url(#linearGradient3353)"
     inkscape:connector-curvature="0"
     id="path49"
     d="m 105.984,72.998 c 0.932,0.535 1.864,1.07 3.21,0.617 1.346,-0.454 2.413,-0.7 2.579,-1.095 0.166,-0.396 -2.754,0.135 -3.542,0.174 -0.787,0.038 -2.247,0.304 -2.247,0.304 z" /><path
     style="fill:#008000"
     inkscape:connector-curvature="0"
     id="path51"
     d="m 110.944,72.658 c -1.32,0.162 -1.978,0.581 -3.117,0.54 -1.139,-0.041 -1.988,-0.773 -1.843,-0.2 0.145,0.574 2.128,0.67 2.899,0.438 0.771,-0.232 2.061,-0.778 2.061,-0.778 z" /><path
     style="fill:url(#linearGradient3345)"
     inkscape:connector-curvature="0"
     id="path55"
     d="m 87.915,65.975 c 1.352,0.222 3.938,-1.131 4.672,-2.928 0.733,-1.797 3.226,-5.618 4.088,-6.069 0.863,-0.451 -1.929,2.024 -2.94,1.802 -1.011,-0.222 -2.9,0.456 -3.28,1.803 -0.38,1.348 -1.229,1.349 -1.949,2.698 -0.72,1.348 -0.591,2.694 -0.591,2.694 z" /><path
     style="fill:#008000"
     inkscape:connector-curvature="0"
     id="path57"
     d="m 94.678,58.442 c -0.438,0.45 -1.385,0.901 -1.986,1.126 -0.601,0.225 -2.193,2.361 -2.374,2.698 -0.18,0.337 -1.562,1.125 -1.83,1.575 -0.268,0.45 -1.151,1.574 -0.546,1.235 0.604,-0.338 1.399,-1.35 2.183,-2.024 0.784,-0.675 1.409,-1.687 1.942,-2.473 0.533,-0.786 1.3,-0.9 1.82,-1.238 0.52,-0.338 0.791,-0.899 0.791,-0.899 z" /><path
     d="m 97.262,68.005 c 1.04,1.019 0.681,1.179 1.552,1.849 0.871,0.67 1.068,-0.054 1.007,2.304 -0.061,2.358 0.108,2.706 0.446,3.403 0.338,0.697 -1.547,-2.063 -1.873,-3.188 -0.327,-1.126 -1.132,-4.368 -1.132,-4.368 z"
     id="path59"
     inkscape:connector-curvature="0"
     style="fill:url(#linearGradient3349)" /><path
     d="m 32.817,15.4 c -0.43,0.215 -0.43,1.074 -0.859,1.288 -0.429,0.215 -1.396,0.966 -1.073,1.074 0.322,0.107 1.61,-0.429 1.396,0 -0.215,0.429 -0.966,1.288 -0.43,1.288 0.536,0 1.289,-1.288 1.289,-0.322 0,0.966 -0.537,1.61 -0.752,1.825 -0.214,0.214 1.718,-0.322 1.718,-0.645 0,-0.322 0.751,-0.859 0.751,-1.181 0,-0.322 0.107,0.214 0.107,0.751 0,0.537 1.181,-0.322 1.181,-0.751 0,-0.43 0.215,-1.181 0.966,-1.396 0.751,-0.215 1.503,-0.537 1.61,-1.074 0.107,-0.537 1.61,-2.684 1.825,-2.899 0.214,-0.215 -0.645,-3.006 -0.645,-3.006 L 32.817,15.4 z"
     id="path61"
     inkscape:connector-curvature="0"
     style="fill:#cccccc" /><path
     d="m 67.361,25.535 c 0.212,-0.645 1.08,-3.68 1.612,-3.68 0.531,0 1.275,-0.859 1.381,-0.107 0.106,0.751 2.054,0.869 2.585,2.479 0.532,1.61 2.619,2.328 3.043,2.864 0.425,0.537 0,0.859 -0.531,0.645 -0.531,-0.215 0.212,0.966 1.063,1.288 0.85,0.322 1.063,1.074 1.169,1.61 0.106,0.536 0.213,1.396 0.531,1.396 0.319,0 -0.744,0.215 -1.169,-0.214 -0.425,-0.43 1.275,1.396 1.913,1.396 0.638,0 -0.425,0.537 -0.744,0.644 -0.318,0.107 0.213,0.966 0.744,1.181 0.531,0.215 -0.638,0.751 -1.063,0.644 -0.425,-0.107 0.956,0.966 0.956,1.932 0,0.966 0.059,4.29 -0.473,5.578 -0.531,1.288 -2.57,3.475 -3.845,4.011 -1.276,0.537 -7.063,2.104 -8.02,0.816 -0.957,-1.288 1.291,-2.436 2.248,-2.651 0.957,-0.214 2.625,-2.04 2.625,-3.436 0,-1.396 -0.314,-4.479 -1.377,-5.875 -1.063,-1.396 -1.64,-4.851 -2.384,-5.817 -0.744,-0.966 -0.264,-4.704 -0.264,-4.704 z"
     id="path63"
     inkscape:connector-curvature="0"
     style="fill:#cccccc" /><path
     d="m 68.444,23.388 c -1.377,1.549 -1.377,3.616 -1.377,5.165 0,1.55 1.549,2.927 1.894,4.305 0.345,1.377 1.033,5.51 1.722,3.96 0.688,-1.549 1.894,-5.166 0.688,-7.059 -1.205,-1.894 -2.755,-3.788 -2.755,-4.477 0.001,-0.689 -0.172,-1.894 -0.172,-1.894 z"
     id="path65"
     inkscape:connector-curvature="0"
     style="fill:url(#radialGradient3311)" /><path
     d="m 37.141,79.23 c 0.39,2.342 2.732,8.589 5.856,10.15 3.123,1.562 6.246,2.732 8.198,3.904 1.952,1.171 1.952,5.465 3.514,7.027 1.562,1.562 1.562,3.123 2.733,3.514 1.171,0.39 0.781,-1.562 0.781,-2.733 0,-1.171 1.952,1.171 4.294,1.952 2.342,0.781 3.123,1.952 3.514,3.123 0.39,1.171 0.39,-3.514 -1.171,-5.465 -1.562,-1.952 0.391,-2.342 -1.171,-4.685 -1.562,-2.342 3.123,0.781 3.904,2.343 0.781,1.562 -1.171,-4.685 -3.123,-5.466 C 62.518,92.113 61.737,88.6 61.347,87.039 60.956,85.477 57.443,80.792 57.443,80.792 L 37.141,79.23 z"
     id="path67"
     inkscape:connector-curvature="0"
     style="fill:#b3b3b3" /><path
     d="m 33.026,112.52 c -0.781,-0.195 -1.79,-0.375 -1.985,-0.96 -0.195,-0.585 -0.692,-1.912 -0.887,-2.497 -0.195,-0.585 -1.357,-1.905 -2.229,-2.879 -0.872,-0.974 -4.254,-1.968 -4.839,-2.358 -0.585,-0.391 -0.39,0 -0.39,1.366 0,1.366 -0.391,1.366 -1.171,0 -0.78,-1.366 -2.368,-1.77 -3.123,-1.562 -0.755,0.208 -3.318,2.342 -4.294,1.952 -0.976,-0.391 -1.756,-0.781 -3.123,-0.586 -1.366,0.195 -4.294,2.928 -4.294,2.928 0.39,-2.342 3.318,-5.271 4.489,-5.271 1.171,0 2.538,-0.585 4.099,-1.171 1.562,-0.586 1.171,-1.562 1.366,-0.976 0.195,0.585 0,1.366 0.781,1.562 0.781,0.196 2.147,0 4.294,0.195 2.147,0.195 7.027,0.585 8.979,2.147 1.952,1.562 6.051,7.027 7.222,8.979 1.171,1.952 4.685,1.171 4.88,2.342 0.195,1.171 -0.781,1.952 0.39,1.757 1.171,-0.195 2.147,-1.171 2.147,-0.195 0,0.976 -0.781,2.342 0.39,2.538 1.171,0.195 2.342,0.39 3.709,0 1.366,-0.391 2.147,0 1.756,0.781 -0.39,0.781 -0.976,1.562 -0.195,1.562 0.781,0 3.904,-0.391 3.513,0.195 -0.39,0.585 -1.171,0.781 -0.585,1.366 0.586,0.585 1.952,1.366 1.171,2.147 -0.78,0.781 0.976,1.367 1.757,2.538 0.781,1.171 1.757,1.952 2.342,3.123 0.586,1.171 -0.39,2.342 0.391,3.123 0.781,0.781 -3.123,-0.585 -4.294,-0.976 -1.171,-0.391 -1.952,-0.781 -2.147,-1.952 -0.195,-1.171 -1.342,-5.84 -3.684,-8.182 -2.342,-2.343 -9.54,-3.854 -11.101,-6.197 l -5.335,-4.839 z"
     id="path69"
     inkscape:connector-curvature="0"
     style="fill:#cccccc" /><path
     d="m 67.859,46.881 c -0.079,-0.01 -0.814,-0.269 -0.86,-0.334 -0.406,-0.582 -0.511,-1.482 -0.511,-1.482 -0.221,0.276 -0.482,1.652 -1.337,2.133 -1.35,0.758 -3.598,0.596 -5.078,0.335 -2.418,-0.427 -4.126,-1.423 -3.699,-0.711 0.282,0.47 3.019,0.978 5.837,1.5 1.448,0.269 3.813,-0.598 4.344,-0.598 0.819,0 1.534,0.647 2.259,0.109 0.661,-0.49 1.044,-0.764 1.383,-1.036 0.315,-0.253 -1.24,0.226 -2.338,0.084 z"
     id="path71"
     inkscape:connector-curvature="0"
     style="fill:url(#linearGradient3319)" /><path
     d="m 62.472,45.805 c -0.996,-0.285 -2.443,-2.167 -1.447,-3.021 0.996,-0.854 6.469,-0.294 8.429,-0.663 1.866,-0.351 1.841,1.834 0.418,2.83 -1.423,0.996 -2.134,1.565 -4.126,1.565 -1.992,0 -3.274,-0.711 -3.274,-0.711 z"
     id="path73"
     inkscape:connector-curvature="0"
     style="fill:url(#radialGradient3317)" /><path
     d="m 64.037,43.956 c -0.569,-0.142 -0.996,-0.854 -0.142,-0.854 0.854,0 2.561,-0.285 3.557,-0.285 0.996,0 1.61,0.114 1.325,0.825 -0.285,0.711 -1.183,-0.256 -2.321,0.171 -1.138,0.427 -2.419,0.143 -2.419,0.143 z"
     id="path75"
     inkscape:connector-curvature="0"
     style="fill:#808080" /><path
     d="m 46.939,47.203 c -0.469,-0.937 -0.469,-1.405 -0.313,-1.874 0.156,-0.469 1.093,1.718 1.718,2.342 0.625,0.624 1.093,1.405 1.093,0.625 0,-0.78 0.625,-1.405 0.78,-0.781 0.156,0.625 0,1.562 0.781,2.03 0.781,0.468 1.249,0.781 2.03,1.093 0.781,0.313 0.625,-0.156 0.781,-0.781 0.156,-0.625 -0.156,1.093 0.469,1.718 0.625,0.625 0.468,1.405 0.625,2.186 0.157,0.781 -0.937,-1.405 -1.25,-1.874 -0.312,-0.469 -1.093,-0.313 -1.093,0.312 0,0.625 0,1.093 0,1.093 0,0 -0.625,-0.625 -1.093,-1.562 -0.468,-0.937 -1.093,-1.562 -1.093,-1.562 0,0 0,1.718 0,2.342 0,0.624 -1.249,-0.469 -1.249,-1.25 0,-0.781 -0.313,-1.405 -0.313,-1.405 0,0 -0.468,0.469 -0.468,0.937 0,0.468 -1.405,-0.937 -1.405,-1.874 0,-0.934 0,-1.715 0,-1.715 z"
     id="path77"
     inkscape:connector-curvature="0"
     style="fill:#b3b3b3" /><path
     d="m 32.172,16.401 c -1.258,-0.153 -2.893,-0.364 -2.267,-0.647 0.626,-0.284 1.502,-0.702 0.748,-0.712 -0.754,-0.01 -2.136,-0.045 -1.635,-0.21 0.501,-0.166 1.251,-0.671 0.749,-0.609 -0.502,0.063 -1.886,-0.179 -1.385,-0.344 0.501,-0.165 1.5,-0.908 0.873,-0.831 -0.628,0.078 -2.392,-0.632 -1.641,-0.931 2.078,-0.828 0.541,-1.506 0.869,-1.346 C 27.979,10.524 26.843,9.942 27.344,9.777 27.845,9.612 28.225,9.978 28.219,9.256 28.214,8.534 27.698,6.947 28.2,6.885 28.702,6.823 29.582,6.92 29.328,6.539 29.074,6.158 28.059,5.045 29.063,4.818 30.066,4.59 31.068,4.157 31.438,3.286 31.808,2.414 31.43,2.255 32.059,2.384 c 0.629,0.129 0.88,0.097 1.008,0.391 0.128,0.293 0.621,-0.902 0.618,-1.315 -0.003,-0.412 0.126,0.087 0.631,0.335 0.504,0.247 1.005,-0.021 1.126,-0.656 0.121,-0.634 0.618,-1.314 0.747,-0.917 0.128,0.396 0.007,0.928 0.51,0.968 0.503,0.041 0.745,-1.124 1.247,-1.186 0.502,-0.062 0.632,0.541 1.639,0.726 1.006,0.185 1.759,0.091 3.021,0.657 1.261,0.566 2.41,2.9 3.178,4.662 0.768,1.762 0.274,2.958 -0.351,3.345 -0.625,0.387 -4.633,2.018 -4.628,2.637 0.005,0.618 -1.755,0.527 -1.751,1.042 0.004,0.516 -0.621,0.902 -1.122,1.171 -0.5,0.268 -1.499,1.114 -2.25,1.413 -0.749,0.3 -3.51,0.744 -3.51,0.744 z"
     id="path79"
     inkscape:connector-curvature="0"
     style="fill:url(#linearGradient3313)" /><path
     d="m 57.343,28.48 c 0.585,0.195 0.683,1.171 0.878,1.757 0.195,0.585 0.488,1.854 0.585,2.44 0.097,0.586 -0.781,0.195 -1.074,-0.488 -0.292,-0.684 -0.585,-1.171 -0.976,-1.367 -0.389,-0.195 0.587,-2.342 0.587,-2.342 z"
     id="path81"
     inkscape:connector-curvature="0"
     style="fill:#cccccc" /><path
     d="m 55.125,32.662 c 1.206,-0.689 3.444,-4.305 1.722,-5.682 -1.722,-1.377 -6.543,-1.722 -7.576,0 -1.033,1.722 -0.861,3.788 -2.411,4.993 -1.55,1.205 -2.066,2.755 -1.205,3.96 0.861,1.206 4.821,3.271 6.714,1.377 1.896,-1.894 2.756,-4.648 2.756,-4.648 z"
     id="path83"
     inkscape:connector-curvature="0"
     style="fill:url(#radialGradient3307)" /><circle
     cx="52.169998"
     cy="30.725"
     r="1.691"
     id="circle85"
     sodipodi:cx="52.169998"
     sodipodi:cy="30.725"
     sodipodi:rx="1.691"
     sodipodi:ry="1.691"
     style="fill:#4d4d4d" /><circle
     cx="52.168999"
     cy="30.6"
     r="1.432"
     id="circle87"
     sodipodi:cx="52.168999"
     sodipodi:cy="30.6"
     sodipodi:rx="1.432"
     sodipodi:ry="1.432"
     style="fill:url(#radialGradient3309)" /><circle
     cx="52.011002"
     cy="29.813999"
     r="0.25799999"
     id="circle89"
     sodipodi:cx="52.011002"
     sodipodi:cy="29.813999"
     sodipodi:rx="0.25799999"
     sodipodi:ry="0.25799999"
     style="fill:#ffffff" /><path
     d="m 61.149,32.481 c 0.585,0.195 0,-0.098 0.585,0.195 0.586,0.293 1.269,0.195 1.854,0.195 0.585,0 1.171,-0.195 1.269,-0.585 0.098,-0.391 1.269,-0.488 1.854,-0.879 0.585,-0.39 0.781,0.488 0.39,0.684 -0.39,0.195 -1.171,0.976 -1.659,0.976 -0.488,0 -2.147,1.366 -2.635,1.171 -0.488,-0.195 -1.659,-0.488 -2.05,-1.171 -0.521,-0.911 -0.748,-1.301 -0.488,-1.367 0.392,-0.097 0.88,0.781 0.88,0.781 z"
     id="path91"
     inkscape:connector-curvature="0"
     style="fill:#cccccc" /><path
     d="m 60.173,36.19 c -0.195,0.683 -0.293,1.854 0.098,2.537 0.39,0.684 0.39,1.562 0.39,2.147 0,0.585 -0.488,1.269 0,1.659 0.488,0.39 -0.195,1.269 0.098,1.659 0.293,0.39 -0.781,0.488 -1.171,-0.195 -0.391,-0.683 -0.293,-1.659 -0.293,-2.538 0,-0.879 -1.269,-2.147 -1.269,-2.83 0,-0.684 0.098,-2.538 0.292,-3.416 0.195,-0.878 0.781,-1.757 0.781,-1.757 l 1.074,2.734 z"
     id="path93"
     inkscape:connector-curvature="0"
     style="fill:#cccccc" /><path
     d="m 74.373,49.755 c -0.309,-0.85 -0.85,-1.468 -0.85,-1.932 0,-0.464 -0.85,-0.155 -1.314,-0.077 -0.464,0.077 -0.85,0.386 -0.85,0.618 0,0.232 -0.696,0.85 -0.696,0.85 0,0 -0.386,0.773 -0.618,0.618 -0.232,-0.154 -0.85,0 -1.082,0.31 -0.232,0.309 -1.237,0.232 -1.623,0.154 -0.387,-0.077 -2.242,0 -2.628,0.387 -0.387,0.386 -1.778,-0.232 -1.778,-0.232 0,0 -0.618,0.695 -0.927,0.541 -0.309,-0.155 -1.546,0.541 -2.164,0.386 0,0 -1.391,0.464 -2.087,0.541 -0.696,0.078 -2.241,0.696 -3.014,0.619 -0.773,-0.078 -2.937,-1.314 -3.478,-1.701 -0.541,-0.386 -2.241,-0.927 -2.937,-0.927 -0.696,0 -4.019,0.232 -4.715,-0.155 -0.695,-0.386 -6.337,-0.618 -7.342,-1.314 -1.005,-0.695 -1.623,-0.773 -1.546,-0.077 l 10.202,14.453 26.355,-0.773 3.092,-12.289 z"
     id="path95"
     inkscape:connector-curvature="0"
     style="fill:#4d4d4d" /><path
     style="fill:url(#linearGradient3361)"
     inkscape:connector-curvature="0"
     id="path99"
     d="m 72.224,66.883 c 0.773,-2.884 2.534,-11.963 5.707,-15.67 3.174,-3.707 4.821,-11.033 6.945,-13.634 2.125,-2.602 3.978,-4.046 3.978,-4.046 0,0 -3.355,3.5 -4.116,6.189 -0.761,2.689 -5.21,11.008 -6.065,12.126 -0.855,1.118 -4.884,12.007 -5.18,13.553 -0.295,1.545 -2.257,13.742 -2.772,15.665 -0.516,1.923 -0.736,2.3 -1.113,2.08 -0.377,-0.22 2.616,-16.263 2.616,-16.263 z" /><path
     style="fill:url(#linearGradient3327)"
     inkscape:connector-curvature="0"
     id="path101"
     d="m 83.386,39.438 c 0.503,-1.728 1.635,-7.131 0.617,-9.544 -1.018,-2.413 -1.332,-3.607 -1.463,-4.594 -0.132,-0.986 -0.151,2.338 -1.056,4.235 -0.905,1.897 -1.295,7.936 -0.604,9.35 0.691,1.414 2.017,2.086 1.979,2.671 -0.039,0.584 0.527,-2.118 0.527,-2.118 z" /><path
     style="fill:url(#linearGradient3331)"
     inkscape:connector-curvature="0"
     id="path103"
     d="m 88.854,33.532 c 0.66,-1.131 1.32,-2.262 1.006,-3.456 -0.314,-1.194 -0.446,-2.18 -0.835,-2.206 -0.39,-0.025 -0.176,2.727 -0.227,3.506 -0.051,0.779 0.056,2.156 0.056,2.156 z" /><path
     style="fill:url(#linearGradient3329)"
     inkscape:connector-curvature="0"
     id="path105"
     d="m 87.83,34.248 c 1.024,-0.716 1.828,-1.056 3.387,-0.955 1.558,0.101 1.715,0.697 2.689,0.76 0.974,0.063 -3.18,0.773 -4.543,0.685 C 87.999,34.65 87.22,34.6 87.22,34.6 l 0.61,-0.352 z" /><path
     style="fill:url(#linearGradient3339)"
     inkscape:connector-curvature="0"
     id="path107"
     d="m 60.418,52.819 c 0.949,0.453 0.86,1.816 0.772,3.18 -0.088,1.363 2.538,3.098 4.851,3.639 2.312,0.541 5.303,2.69 6.641,3.168 1.338,0.478 1.259,1.099 1.29,-0.582 0.03,-1.68 -4.041,-5.269 -6.184,-5.407 -2.143,-0.138 -4.286,-0.277 -4.977,-1.69 -0.69,-1.416 -2.393,-2.308 -2.393,-2.308 z" /><path
     style="fill:url(#linearGradient3341)"
     inkscape:connector-curvature="0"
     id="path109"
     d="m 76.283,64.603 c -0.974,-0.063 -3.104,-0.396 -2.249,-1.515 0.854,-1.118 7.201,-2.469 8.772,-2.563 1.571,-0.094 2.08,1.112 3.481,0.616 1.401,-0.497 3.349,-0.371 4.518,-0.295 1.168,0.076 1.778,-0.276 2.57,-0.421 0.792,-0.145 -3.11,2.733 -4.656,2.438 -1.546,-0.295 -4.48,-0.29 -5.322,0.634 -0.842,0.923 -3.192,0.967 -4.179,1.099 -0.987,0.132 -2.935,0.007 -2.935,0.007 z" /><path
     style="fill:url(#linearGradient3335)"
     inkscape:connector-curvature="0"
     id="path111"
     d="m 77.792,53.355 c 0.295,-1.545 -0.685,-4.543 -2.192,-5.423 -1.507,-0.88 -4.643,-3.821 -4.97,-4.82 -0.327,-0.999 1.614,2.256 1.344,3.412 -0.271,1.156 0.175,3.337 1.319,3.802 1.144,0.465 1.081,1.439 2.199,2.294 1.118,0.855 2.3,0.735 2.3,0.735 z" /><path
     style="fill:url(#linearGradient3337)"
     inkscape:connector-curvature="0"
     id="path113"
     d="m 77.013,53.305 c 0.119,1.181 4.103,0.07 5.102,-0.257 1,-0.327 1.747,-2.821 2.903,-2.551 1.156,0.27 1.999,-0.653 2.815,-1.188 0.817,-0.534 1.671,-1.652 1.671,-1.652 0,0 -4.712,0.282 -5.58,1.595 -0.868,1.313 -2.583,0.616 -3.62,1.527 -1.035,0.911 -3.291,2.526 -3.291,2.526 z" /><path
     style="fill:#008000"
     inkscape:connector-curvature="0"
     id="path115"
     d="m 78.364,53.588 c -1.351,-0.283 -0.151,-0.694 1.141,-1.002 1.342,-0.32 1.907,-0.757 2.542,-1.498 0.635,-0.742 3.048,-1.759 4.034,-1.891 0.987,-0.132 1.804,-0.666 1.804,-0.666 0,0 -1.138,2.47 -2.501,2.381 -1.364,-0.088 -2.244,1.42 -3.268,2.136 -1.025,0.716 -3.752,0.54 -3.752,0.54 z" /><path
     style="fill:#008000"
     inkscape:connector-curvature="0"
     id="path117"
     d="m 73.873,64.056 c 0.663,0.336 5.517,-0.622 6.912,-1.021 1.395,-0.399 7.138,-1.495 8.106,-1.334 0.968,0.16 3.965,-0.82 3.965,-0.82 0,0 -2.966,0.493 -3.843,0.437 -0.877,-0.056 -7.198,0.904 -8.398,1.315 -1.199,0.411 -6.742,1.423 -6.742,1.423 z" /><path
     style="fill:#008000"
     inkscape:connector-curvature="0"
     id="path119"
     d="m 60.868,53.435 c 0.886,1.427 0.713,2.589 1.643,3.334 0.93,0.745 5.866,1.553 6.971,2.602 1.106,1.05 4.163,3.692 4.163,3.692 0,0 -3.364,-3.934 -4.508,-4.399 -1.144,-0.465 -4.996,-1.398 -6.126,-2.059 -1.132,-0.66 -2.143,-3.17 -2.143,-3.17 z" /><path
     style="fill:#008000"
     inkscape:connector-curvature="0"
     id="path121"
     d="m 82.5,41.043 c 0.08,-0.484 -0.226,-1.799 -0.222,-3.755 0.004,-1.956 0.334,-3.279 0.361,-4.451 0.054,-2.343 -0.295,-4.518 -0.226,-5.589 0.069,-1.071 -0.044,3.713 -0.271,4.188 -0.227,0.474 -0.453,0.949 -0.321,1.935 0.132,0.986 0.104,2.941 0.06,3.623 -0.044,0.682 -0.34,2.228 -0.079,2.733 0.261,0.505 0.698,1.316 0.698,1.316 z" /><path
     style="fill:#008000"
     inkscape:connector-curvature="0"
     id="path123"
     d="m 87.22,34.6 c 0.11,-0.188 1.408,-0.593 2.083,-0.452 0.675,0.142 1.169,0.076 1.96,-0.069 0.792,-0.145 -1.693,0.478 -2.278,0.439 C 88.401,34.48 87.22,34.6 87.22,34.6 z" /><path
     style="fill:#008000"
     inkscape:connector-curvature="0"
     id="path125"
     d="m 89.071,28.656 c 0.015,1.272 0.374,1.785 0.201,2.947 -0.173,1.163 -1.028,2.281 -0.418,1.929 0.61,-0.352 0.937,-2.384 0.786,-3.079 -0.151,-0.694 -0.569,-1.797 -0.569,-1.797 z" /><path
     style="fill:#008000"
     inkscape:connector-curvature="0"
     id="path127"
     d="m 71.751,45.434 c 0.358,0.512 0.679,1.608 0.829,2.303 0.151,0.694 1.888,2.567 2.167,2.781 0.28,0.214 0.861,1.816 1.231,2.134 0.371,0.317 1.282,1.354 1.034,0.653 -0.248,-0.701 -1.068,-1.634 -1.596,-2.548 -0.528,-0.914 -1.36,-1.652 -2.004,-2.281 -0.644,-0.629 -0.685,-1.512 -0.939,-2.115 -0.253,-0.604 -0.722,-0.927 -0.722,-0.927 z" /><path
     style="fill:url(#linearGradient3333)"
     inkscape:connector-curvature="0"
     id="path129"
     d="m 83.367,42.762 c 1.439,-1.081 1.414,-0.691 2.451,-1.602 1.037,-0.911 0.465,-1.144 2.608,-1.005 2.143,0.138 2.544,-0.031 3.349,-0.371 0.804,-0.339 -2.646,1.589 -3.84,1.904 -1.193,0.314 -4.568,1.074 -4.568,1.074 z" /><path
     d="m 10.463,41.778 c 0.538,-0.807 5.528,-7.121 9.528,-6.725 1.632,0.162 4.189,0.421 5.599,1.183 2.084,1.126 4.124,7.329 5.427,7.943 2.513,1.186 3.396,3.338 4.802,5.622 1.405,2.284 2.557,2.225 3.26,2.401 0.703,0.176 2.064,0.385 2.811,0.527 0.93,0.176 0.996,0.449 1.522,0.449 0.527,0 1.933,-1.23 1.757,0 -0.176,1.229 3.436,5.622 4.666,6.148 1.229,0.527 4.392,-1.093 7.202,-0.566 2.811,0.527 7.359,3.221 9.116,2.869 1.756,-0.351 5.973,-0.527 7.203,0.352 1.229,0.878 0.527,2.459 0.527,2.459 0,0 1.757,0 1.933,1.054 0.175,1.054 -0.352,2.284 -0.352,2.284 0,0 0.878,0.703 1.405,1.581 0.527,0.878 0.352,2.284 0,2.284 -0.351,0 1.054,2.108 -1.229,3.865 -2.284,1.756 -5.797,3.689 -6.5,5.094 -0.703,1.406 -4.041,4.216 -6.5,4.743 -2.459,0.527 -5.094,0.878 -5.797,1.054 -0.703,0.176 -0.878,-1.405 -1.581,-2.108 -0.703,-0.703 0.351,0.703 -0.703,1.405 -1.054,0.703 -1.932,1.229 -2.635,0.527 -0.703,-0.702 -0.527,-2.284 -1.054,-1.581 -0.527,0.703 -2.459,1.581 -3.865,1.054 -1.406,-0.527 -5.797,-1.23 -7.203,-1.581 -1.405,-0.352 -7.554,-3.514 -8.432,-2.986 -0.878,0.527 -3.709,0.995 -5.817,1.171 -2.108,0.176 -7.339,-2.342 -8.042,-3.396 -0.703,-1.054 -1.405,-1.581 -2.459,-0.527 -1.054,1.054 -1.757,2.108 -1.757,1.581 0,-0.527 0.703,-2.635 0,-2.108 -0.703,0.527 -1.581,2.108 -1.581,1.405 0,-0.703 0,-2.108 -0.527,-1.581 -0.527,0.527 -0.703,1.054 -1.405,0.527 C 9.079,77.674 8.904,75.39 8.2,75.566 7.497,75.741 2.871,74.297 3.047,73.067 3.223,71.837 0.587,69.514 0.49,64.947 0.353,58.495 0.197,55.07 3.086,51.069 4.782,48.72 8.181,47.4 8.532,45.467 c 0.35,-1.932 1.931,-3.689 1.931,-3.689 z"
     id="path131"
     inkscape:connector-curvature="0"
     style="fill:url(#linearGradient3289)" /><path
     d="m 65.292,63.171 c 0.781,-0.488 2.245,-0.781 2.732,-0.585 0.488,0.195 1.659,0.39 2.343,0.39 0.683,0 1.562,-0.488 1.171,0 -0.39,0.488 -1.757,1.269 -1.952,1.757 -0.195,0.488 1.464,-0.488 2.245,0 0.781,0.488 1.854,0.878 2.049,1.269 0.195,0.39 -0.683,1.073 -0.195,1.269 0.488,0.195 0.683,0.781 1.074,1.171 0.391,0.39 0,0.781 -0.488,0.585 -0.488,-0.195 -0.684,-0.391 -1.367,-0.391 -0.683,0 0.634,1.609 1.024,1.805 0.391,0.195 0.538,0.44 0.831,0.44 0.293,0 -0.878,0.195 -1.464,0.097 -0.585,-0.097 0.585,0.488 1.073,0.781 0.488,0.293 -0.683,0.488 -1.171,0.293 -0.488,-0.195 1.562,0.878 1.757,1.562 0.195,0.684 0.39,1.074 0.781,1.269 0.39,0.195 -1.171,0.39 -1.659,0.195 -0.488,-0.195 0.39,0.976 0.781,1.269 0.39,0.292 0.781,0.488 1.074,0.585 0.292,0.098 -0.684,0.391 -1.367,0 -0.683,-0.391 -3.318,-1.074 -4.196,-2.245 -0.878,-1.171 -0.878,-2.147 -1.367,-2.44 -0.488,-0.293 0.781,0.488 1.367,0.976 0.585,0.488 -0.391,-1.367 -1.269,-2.342 -0.878,-0.976 -0.976,-1.464 -1.269,-1.952 -0.293,-0.488 1.073,0.293 1.562,0.293 0.488,0 -1.171,-1.269 -1.659,-2.05 -0.488,-0.781 0.195,-0.195 1.171,-0.098 0.976,0.098 1.659,-0.488 2.05,-0.488 0.39,0 -1.757,-0.098 -2.538,-0.585 -0.781,-0.488 -1.659,-1.269 -2.245,-1.269 -0.586,0 -0.879,-1.561 -0.879,-1.561 z"
     id="path133"
     inkscape:connector-curvature="0"
     style="fill:#666666;fill-opacity:1" /><path
     d="m 27.18,64.371 c -0.703,1.229 -1.756,0.352 -2.635,0.703 -0.879,0.351 -1.405,1.23 -0.527,1.23 0.878,0 1.581,-0.352 1.581,0.527 0,0.879 -0.175,2.459 0.703,2.635 0.878,0.176 1.229,0.879 1.229,1.582 0,0.703 1.581,1.054 2.459,1.932 0.878,0.878 1.366,1.289 2.069,2.518 0.703,1.229 -0.664,3.279 -0.664,3.279 0,0 0.703,0.176 0.878,-0.703 0.175,-0.879 0.878,-1.23 0.878,-1.23 0,0 0.527,1.581 0.176,2.108 -0.352,0.527 1.581,0 2.108,-1.054 0.527,-1.054 0.527,0.878 0.352,1.405 -0.176,0.527 1.405,-1.932 2.635,-1.932 1.23,0 2.811,0.878 3.689,0.527 0.878,-0.351 1.932,-1.405 2.635,-1.054 0.702,0.352 1.932,0.352 2.635,-0.175 0.703,-0.527 1.405,-0.352 2.108,0.351 0.703,0.703 3.162,-0.351 3.689,-1.581 0.527,-1.229 1.229,-3.162 1.757,-3.865 0.527,-0.703 -1.347,0.957 -2.401,0.605 -1.054,-0.351 0.585,-3.143 0.41,-3.494 -0.176,-0.352 -1.347,-0.098 -1.874,0.429 -0.527,0.527 -1.23,-1.229 -1.933,-2.108 -0.703,-0.879 -0.859,2.518 -1.913,2.869 -1.054,0.352 -3.708,-0.059 -4.235,0.644 -0.527,0.703 -1.757,-0.175 -2.284,-1.757 -0.527,-1.581 -0.352,-2.459 -1.054,-1.932 -0.702,0.527 -1.757,1.581 -2.108,2.284 -0.351,0.703 -2.108,0.351 -2.635,0.878 -0.527,0.527 -1.757,-2.635 -1.23,-2.811 0.527,-0.175 -1.756,1.581 -2.459,1.757 -0.703,0.176 -0.527,-1.581 -0.878,-2.811 -0.352,-1.23 -0.352,-2.459 -1.054,-2.811 -0.702,-0.351 -2.107,1.055 -2.107,1.055 z"
     id="path135"
     inkscape:connector-curvature="0"
     style="fill:#4d4d4d" /><path
     d="m 12.297,42.188 c -0.293,0 -0.976,0.781 -1.074,1.269 -0.098,0.488 -0.098,2.049 -0.585,2.245 -0.488,0.195 -1.269,0.683 -1.171,1.366 0.098,0.683 -0.292,1.464 -0.878,1.757 -0.585,0.293 -1.854,1.074 -2.245,1.854 -0.391,0.781 0.098,0.39 0.39,0.39 0.293,0 -0.683,0.391 -1.073,0.976 -0.391,0.585 -0.976,1.464 -1.464,1.952 -0.488,0.488 -0.293,0.78 0.195,0.78 0.488,0 -0.292,0 -0.781,0.684 -0.488,0.683 -0.683,1.757 -0.683,2.635 0,0.878 -0.098,2.342 -0.488,2.83 -0.391,0.488 -1.171,1.171 -0.781,1.171 0.39,0 1.952,-0.976 2.049,-1.756 0.097,-0.78 0,-1.367 0.391,-1.367 0.39,0 1.854,0.391 1.464,0.098 -0.391,-0.293 -1.269,-0.781 -1.269,-1.269 0,-0.488 0.781,0 1.269,0.098 0.488,0.097 -0.293,-0.293 -0.293,-0.878 0,-0.586 -0.195,-1.757 0.293,-1.562 0.488,0.195 0.683,-0.293 1.171,-0.391 0.488,-0.098 1.367,-0.585 1.757,-0.585 0.391,0 -0.39,-0.488 -0.683,-0.878 -0.293,-0.39 0.976,0.195 1.659,0.293 0.683,0.098 1.562,0 1.562,0 0,0 -0.781,-0.683 -1.074,-0.976 -0.292,-0.293 0.098,-0.683 -0.195,-0.976 -0.293,-0.293 0.781,0.683 0.781,0.683 0,0 -0.098,-1.366 -0.586,-1.659 C 9.467,50.68 9.76,50.484 9.76,49.899 c 0,-0.586 -0.293,-2.343 0.39,-2.733 0.683,-0.39 0.683,-1.269 1.366,-1.074 0.684,0.195 1.074,0 1.464,-0.098 0.39,-0.097 1.073,0 1.269,0 0.196,0 -0.098,-0.39 -0.585,-0.683 -0.488,-0.292 -1.171,-0.585 -1.074,-1.073 0.098,-0.488 0,-1.367 0.585,-1.464 0.586,-0.098 -0.878,-0.586 -0.878,-0.586 z"
     id="path137"
     inkscape:connector-curvature="0"
     style="fill:#4d4d4d" /><path
     d="m 64.414,62.683 c 0.878,0.488 3.806,1.854 4.489,1.952 0.683,0.098 1.952,-0.585 1.952,-0.585 0,0 -1.757,1.952 -2.44,1.952 -0.683,0 -0.098,0.976 1.074,1.171 1.171,0.195 1.562,0.781 1.562,0.781 0,0 -4.294,0.976 -5.466,0 -1.171,-0.976 -1.756,-1.366 -1.756,-1.366 0,0 1.171,2.341 1.951,2.731 0.781,0.391 -2.538,-0.781 -3.123,-1.756 -0.585,-0.976 -1.562,-0.195 -1.562,0.781 0,0.976 0,1.952 0,1.952 0,0 -1.757,-1.171 -1.171,-2.732 0.586,-1.562 0.976,-2.538 0.195,-2.538 -0.781,0 -2.147,-0.976 -2.538,-1.952 -0.39,-0.976 2.733,-0.195 3.709,-0.976 0.976,-0.78 1.756,-1.562 2.732,-1.562 0.976,0 1.952,0.781 2.928,0.781 0.977,0 -2.536,1.366 -2.536,1.366 z"
     id="path139"
     inkscape:connector-curvature="0"
     style="fill:#4d4d4d" /><path
     d="m 73.349,62.639 c 0.488,-0.098 1.366,0.488 1.366,0.488 0,0 -0.878,0 -1.366,0.098 -0.488,0.097 0,-0.586 0,-0.586 z"
     id="path141"
     inkscape:connector-curvature="0"
     style="fill:#9e978f" /><path
     d="m 75.106,66.055 c 0.488,0 1.073,0.195 1.269,0.292 0.196,0.097 -0.39,0.195 -0.878,0.391 -0.489,0.195 -0.391,-0.683 -0.391,-0.683 z"
     id="path143"
     inkscape:connector-curvature="0"
     style="fill:#9e978f" /><path
     d="m 76.277,70.935 c -0.292,-0.097 -0.292,-0.488 0.098,-0.488 0.391,0 1.659,0.586 1.659,0.586 l -1.757,-0.098 z"
     id="path145"
     inkscape:connector-curvature="0"
     style="fill:#9e978f" /><path
     d="m 51.186,131.45 c 0.928,0.309 2.474,1.855 2.937,2.782 0.464,0.927 0.155,1.082 0.155,1.082 0,0 -1.855,-2.319 -2.628,-2.319 -0.773,0 -0.464,-1.545 -0.464,-1.545 z"
     id="path147"
     inkscape:connector-curvature="0"
     style="fill:#808080" /><path
     d="m 48.403,135.16 c 0.619,-0.154 1.546,1.855 1.546,1.855 0,0 -0.628,-0.287 -1.546,-0.927 -0.917,-0.641 0,-0.928 0,-0.928 z"
     id="path149"
     inkscape:connector-curvature="0"
     style="fill:#808080" /><path
     d="m 46.239,136.706 c 0.773,0 0.927,2.01 0.927,2.01 0,0 -0.309,-0.773 -1.082,-1.082 -0.772,-0.31 0.155,-0.928 0.155,-0.928 z"
     id="path151"
     inkscape:connector-curvature="0"
     style="fill:#808080" /><path
     d="m 99.105,116.147 c 1.082,-0.928 1.7,-1.082 2.009,-0.309 0.31,0.772 -0.618,2.009 -0.154,2.473 0.464,0.463 0.773,2.009 0.154,2.164 -0.618,0.154 -1.391,0.773 -0.927,1.082 0.464,0.309 1.082,1.391 0.155,2.009 -0.928,0.619 0.154,0.464 0.154,1.391 0,0.928 -1.855,2.01 -2.628,1.237 -0.773,-0.773 -0.773,-1.7 -0.154,-2.009 0.618,-0.31 0.773,-1.855 0.618,-2.937 -0.154,-1.082 0.309,-1.392 0.619,-1.855 0.309,-0.464 0,-1.701 -0.155,-2.319 -0.155,-0.618 0.309,-0.927 0.309,-0.927 z"
     id="path153"
     inkscape:connector-curvature="0"
     style="fill:#808080" /><path
     style="fill:#808080"
     inkscape:connector-curvature="0"
     id="path157"
     d="m 108.843,113.828 c 0.928,-0.155 3.865,1.237 3.865,1.237 0,0 -2.937,-0.155 -3.865,-0.155 -0.927,0 0,-1.082 0,-1.082 z" /><path
     d="m 109.307,119.083 c 0.773,-0.309 3.865,0.155 3.865,0.155 0,0 -3.401,1.082 -4.174,0.928 -0.773,-0.155 0.309,-1.083 0.309,-1.083 z"
     id="path159"
     inkscape:connector-curvature="0"
     style="fill:#808080" /><path
     d="m 108.225,123.721 c 0.464,-0.773 2.937,0 2.937,0 0,0 -2.628,1.391 -3.246,0.927 -0.618,-0.463 0.309,-0.927 0.309,-0.927 z"
     id="path161"
     inkscape:connector-curvature="0"
     style="fill:#808080" /><path
     d="m 106.834,113.673 c 0.618,0 2.009,-0.309 2.164,0.619 0.154,0.927 -0.618,0.773 -1.546,1.082 -0.927,0.309 -1.855,0.154 -1.7,-0.619 0.154,-0.772 1.082,-1.082 1.082,-1.082 z"
     id="path163"
     inkscape:connector-curvature="0"
     style="fill:#808080" /><path
     d="m 106.37,118.311 c 0.464,-0.309 2.937,-0.619 3.246,0.154 0.309,0.773 -0.464,2.473 -1.545,2.473 -1.082,0 -1.855,0.31 -1.855,-0.618 0,-0.927 0.154,-2.009 0.154,-2.009 z"
     id="path165"
     inkscape:connector-curvature="0"
     style="fill:#808080" /><path
     d="m 106.525,123.257 c 0.618,-0.773 1.391,0.155 1.7,0.464 0.309,0.309 0.309,1.7 -0.927,1.7 -1.237,0 -0.773,-2.164 -0.773,-2.164 z"
     id="path167"
     inkscape:connector-curvature="0"
     style="fill:#808080" /><path
     style="fill:#808080"
     inkscape:connector-curvature="0"
     id="path171"
     d="m 105.752,111.355 c 0.927,-0.155 3.864,1.236 3.864,1.236 0,0 -2.937,-0.154 -3.864,-0.154 -0.927,0 0,-1.082 0,-1.082 z" /><path
     d="m 104.206,112.128 c -0.618,-0.155 0,-1.237 1.082,-0.928 1.082,0.309 1.391,1.082 0.309,1.391 -1.082,0.31 -1.391,-0.463 -1.391,-0.463 z"
     id="path173"
     inkscape:connector-curvature="0"
     style="fill:#808080" /><path
     d="m 104.67,126.967 c 0.463,-0.773 2.937,0 2.937,0 0,0 -2.628,1.391 -3.246,0.927 -0.619,-0.463 0.309,-0.927 0.309,-0.927 z"
     id="path175"
     inkscape:connector-curvature="0"
     style="fill:#808080" /><path
     d="m 102.979,128.553 c -0.627,-0.813 -0.473,-1.431 0.455,-1.585 0.928,-0.155 2.01,-0.155 1.546,1.082 -0.464,1.237 -2.001,0.503 -2.001,0.503 z"
     id="path177"
     inkscape:connector-curvature="0"
     style="fill:#808080" /></g>
</svg>